<svg width="23px" height="28px" viewBox="0 0 23 28" version="1.1" xmlns="http://www.w3.org/2000/svg" xmlns:xlink="http://www.w3.org/1999/xlink">
    <!-- Generator: Sketch 52.2 (67145) - http://www.bohemiancoding.com/sketch -->
    <title>Group 24</title>
    <desc>Created with Sketch.</desc>
    <g id="1.Summary-Page-&amp;-Feed-Tiles" stroke="none" stroke-width="1" fill="none" fill-rule="evenodd" stroke-linecap="round" stroke-linejoin="round">
        <g id="Recent-Activity" transform="translate(-58.000000, -721.000000)" stroke="#FFFFFF">
            <g id="Group-2" transform="translate(49.000000, 714.000000)">
                <g id="Group-24" transform="translate(10.000000, 8.000000)">
                    <path d="M15.3209643,25.5357143 L17.4501786,23.4065 C17.8123214,23.0443571 17.8123214,22.4556429 17.4501786,22.0935 L15.3209643,19.9642857" id="Stroke-4"></path>
                    <path d="M18.1864429,19.0350643 L16.0572286,16.90585 C15.6950857,16.5437071 15.6950857,15.9549929 16.0572286,15.59285 L18.1864429,13.4636357" id="Stroke-6"></path>
                    <path d="M15.7861786,16.24935 L20.97225,16.24935" id="Stroke-8"></path>
                    <path d="M7.8936,6.96697857 L13.4641,6.96697857" id="Stroke-10"></path>
                    <path d="M7.8936,11.6103 L13.4641,11.6103" id="Stroke-12"></path>
                    <path d="M7.8936,16.2537143 L13.4641,16.2537143" id="Stroke-14"></path>
                    <path d="M4.17894286,6.96697857 L5.10751429,6.96697857" id="Stroke-16"></path>
                    <path d="M4.17894286,11.6103 L5.10751429,11.6103" id="Stroke-18"></path>
                    <path d="M4.17894286,16.2537143 L5.10751429,16.2537143" id="Stroke-20"></path>
                    <path d="M17.1785714,11.6060286 L17.1785714,1.39638571 C17.1785714,0.882885714 16.7848571,0.467814286 16.2992143,0.467814286 L1.34364286,0.467814286 C0.858,0.467814286 0.464285714,0.882885714 0.464285714,1.39638571 L0.464285714,21.8240286 C0.464285714,22.3375286 0.858,22.7526 1.34364286,22.7526 L17.7208571,22.7498143" id="Stroke-22"></path>
                </g>
            </g>
        </g>
    </g>
</svg>