<svg xmlns="http://www.w3.org/2000/svg" viewBox="0 0 24 24"><path fill="#FFFFFF" d="M15.0934144,6.68209803 C13.9678595,8.31608554 12.4548276,9.41886632 10.5094465,9.71767543 C10.2685748,9.75467316 10.0361156,9.61262959 9.95913723,9.38141029 C9.84192699,9.02934706 9.50976927,8.78582178 9.13232291,8.78582178 C8.65146437,8.78582178 8.26160367,9.17594509 8.26160367,9.6572093 C8.26160914,9.65861931 8.26160914,9.65861931 8.26256863,9.67776752 C8.26411533,9.70573565 8.26411533,9.70573565 8.26494526,9.7514421 C8.26494526,10.4882301 8.60517147,11.0460312 9.1955272,11.4724571 C9.41078452,11.6279418 9.64408815,11.7536654 9.87727944,11.8508113 C10.0148133,11.908107 10.1178767,11.9420398 10.1680717,11.9552778 C10.4350843,12.025697 10.5944548,12.2992395 10.5240356,12.5662521 C10.4536164,12.8332648 10.1800738,12.9926352 9.91306118,12.922216 C9.57428523,12.8328707 9.09424315,12.6328884 8.60998448,12.2830986 C7.77807698,11.6821951 7.26494526,10.8409152 7.26494526,9.7514421 C7.26493979,9.75003219 7.26493979,9.75003219 7.2639803,9.73088396 C7.2624336,9.70291577 7.2624336,9.70291577 7.26160367,9.6572093 C7.26160367,8.62381103 8.09902882,7.78582178 9.13232291,7.78582178 C9.7897337,7.78582178 10.3820704,8.12870297 10.7173013,8.66191307 C12.1911612,8.33500574 13.3617535,7.4331746 14.2698878,6.11482044 C14.6831119,5.51493592 15.0126034,4.86925471 15.2652392,4.2235808 C15.4159595,3.83837764 15.5065462,3.54259048 15.5454472,3.38216871 C15.6501264,2.95048831 16.223703,2.85944424 16.4569107,3.2374917 C17.1430934,4.34984628 17.3177487,5.11691834 17.309912,6.30205767 C17.3092478,6.38592601 17.3092478,6.38592601 17.3083783,6.46861317 C17.30673,6.62554835 17.306251,6.69614796 17.3064886,6.79659959 L17.3063353,6.80717397 C17.3024024,7.14385548 17.3302458,7.59425704 17.4168904,8.02281743 C17.4623755,8.24779496 17.5209333,8.44341942 17.5914364,8.60003431 C17.6868942,8.81230221 17.8264961,9.03670215 18.0578192,9.36433327 C18.094787,9.41669205 18.2613434,9.64983259 18.3051071,9.71200877 C18.4014932,9.84894687 18.4739686,9.95676299 18.5372869,10.0595405 C18.7223615,10.3599516 18.8216888,10.6034963 18.8216888,10.8601809 C18.8216888,11.1282036 18.6992924,11.3456578 18.4919864,11.5630052 C18.3788097,11.6816637 18.3352949,11.7188617 18.0264627,11.9728821 C17.7142835,12.2296554 17.5959945,12.3688955 17.5959945,12.4019894 C17.5959945,13.8703328 17.232965,15.6434155 16.3896037,16.0179787 C15.7331957,16.3099222 14.7396737,16.4618364 13.5,16.49364 L13.5,20 C13.5,20.3734129 13.1055449,20.6150589 12.7728793,20.4454393 L7.27287932,17.6410984 C7.10542194,17.5557152 7,17.3836279 7,17.1956591 L7,15.1534991 C7,14.8773567 7.22385763,14.6534991 7.5,14.6534991 C7.77614237,14.6534991 8,14.8773567 8,15.1534991 L8,16.8893555 L12.5,19.1838163 L12.5,16 C12.5,15.7239583 12.7237006,15.5001424 12.9997423,15.5000001 C14.3436417,15.4993074 15.4010489,15.3632021 15.9834646,15.1041675 C16.2743328,14.9749837 16.5959945,13.4039467 16.5959945,12.4019894 C16.5959945,11.9361564 16.8258284,11.6656149 17.3912206,11.2005691 C17.7086503,10.9394771 17.8216888,10.8209633 17.8216888,10.8601809 C17.8216888,10.7819873 17.7331708,10.6383058 17.2409149,9.94110655 C16.9752047,9.56477177 16.8078264,9.29572325 16.6794933,9.01035086 C16.5752151,8.77870848 16.4959318,8.51384646 16.436722,8.22098395 C16.3334811,7.71033488 16.3017188,7.19653982 16.3064035,6.79549342 C16.3066233,6.77960085 16.3066233,6.77960085 16.3066172,6.7874995 C16.3062329,6.69379274 16.3067345,6.61987088 16.3084335,6.4581106 C16.3092957,6.37605394 16.3092957,6.37605394 16.3099339,6.29544535 C16.3138713,5.69999707 16.2692092,5.25199026 16.1138663,4.79307365 C15.8468397,5.43729313 15.5095433,6.07799653 15.0934144,6.68209803 Z"></path></svg>